#!OML:ASF H:\LiuWeirdWalks\Patient Classification 1\Patient 1\Session 1\male.ASF
:FULLY-SPECIFIED
:DEGREES
1168
root 1.11101 17.8481 20.9226 2.23922 -0.80138 -8.22201
lowerback 10.0196 -0.226533 -2.55047
upperback 1.67648 -0.568955 0.101257
thorax -3.84593 -0.249307 1.61614
lowerneck -22.7443 3.41515 9.08117
upperneck 16.6602 3.04652 -6.19411
head 9.21157 1.31293 -3.19405
rclavicle 1.2921e-014 -3.02153e-014
rhumerus -21.0175 -34.0672 -9.89192
rradius 35.8306
rwrist -3.62398
rhand -26.537 -8.07198
rfingers 7.12502
rthumb 0.027102 -38.0517
lclavicle 1.2921e-014 -3.02153e-014
lhumerus -30.1707 30.8404 32.4786
lradius 46.9312
lwrist 8.15414
lhand -20.1326 -2.19968
lfingers 7.12502
lthumb 6.21182 27.6892
rfemur 4.15755 -5.94608 24.2004
rtibia 27.4652
rfoot -12.4677 -11.6019
rtoes -16.2365
lfemur -25.0762 0.0723639 -4.32624
ltibia 28.213
lfoot 0.388332 10.0226
ltoes -13.1979
1169
root 1.15461 17.8506 21.0046 2.27046 -0.876693 -8.22645
lowerback 10.0802 -0.206255 -2.73097
upperback 1.67174 -0.57015 -0.058799
thorax -3.88432 -0.247802 1.55212
lowerneck -22.9194 3.38696 9.03185
upperneck 16.7183 2.94536 -5.90669
head 9.24813 1.29335 -3.09981
rclavicle -1.31198e-014 -2.8625e-014
rhumerus -21.1517 -34.0096 -9.82846
rradius 35.8949
rwrist -3.54706
rhand -26.3954 -7.91259
rfingers 7.12502
rthumb 0.163863 -37.8923
lclavicle -1.31198e-014 -2.8625e-014
lhumerus -30.037 30.8622 32.5974
lradius 46.9208
lwrist 8.16636
lhand -20.1611 -2.24804
lfingers 7.12502
lthumb 6.18424 27.6417
rfemur 4.03733 -5.97711 23.9429
rtibia 28.1028
rfoot -12.1906 -11.283
rtoes -16.6512
lfemur -25.1298 0.300192 -4.52059
ltibia 28.777
lfoot 0.433281 9.73378
ltoes -12.2385
1170
root 1.19889 17.8548 21.0869 2.29533 -0.969403 -8.32801
lowerback 10.1234 -0.183586 -2.78561
upperback 1.68055 -0.553223 -0.197043
thorax -3.9008 -0.23929 1.43722
lowerneck -23.1097 3.35767 8.97892
upperneck 16.768 2.84674 -5.64106
head 9.28529 1.27229 -3.01217
rclavicle 1.41137e-014 -6.36111e-015
rhumerus -21.2715 -33.9508 -9.77639
rradius 35.9473
rwrist -3.55018
rhand -26.2742 -7.75586
rfingers 7.12502
rthumb 0.280869 -37.7354
lclavicle 1.41137e-014 -6.36111e-015
lhumerus -29.9198 30.9164 32.7328
lradius 46.9481
lwrist 8.17284
lhand -20.1772 -2.31071
lfingers 7.12502
lthumb 6.16877 27.5795
rfemur 3.98519 -5.95326 23.7954
rtibia 28.609
rfoot -11.8343 -10.9545
rtoes -17.0645
lfemur -25.1471 0.46876 -4.59751
ltibia 29.3229
lfoot 0.392336 9.57359
ltoes -11.462
1171
root 1.24394 17.8608 21.1693 2.31894 -1.07925 -8.51887
lowerback 10.1655 -0.156941 -2.72787
upperback 1.69028 -0.517755 -0.307942
thorax -3.91726 -0.22295 1.28502
lowerneck -23.3218 3.31675 8.89134
upperneck 16.8129 2.74396 -5.38673
head 9.32418 1.24569 -2.9234
rclavicle -8.74653e-015 -1.74931e-014
rhumerus -21.3777 -33.8933 -9.71956
rradius 35.9935
rwrist -3.59642
rhand -26.154 -7.60248
rfingers 7.12502
rthumb 0.396973 -37.5819
lclavicle -8.74653e-015 -1.74931e-014
lhumerus -29.8259 30.9951 32.8879
lradius 46.9961
lwrist 8.15968
lhand -20.1913 -2.35577
lfingers 7.12502
lthumb 6.15509 27.5348
rfemur 3.99191 -5.87904 23.7456
rtibia 28.9878
rfoot -11.4133 -10.6061
rtoes -17.4303
lfemur -25.123 0.564209 -4.5656
ltibia 29.8301
lfoot 0.278284 9.56013
ltoes -10.8852
1172
root 1.28961 17.8686 21.2507 2.34995 -1.20677 -8.76068
lowerback 10.1743 -0.1426 -2.61707
upperback 1.67302 -0.491862 -0.409499
thorax -3.94316 -0.211651 1.11376
lowerneck -23.3449 3.29394 8.88376
upperneck 16.7763 2.67006 -5.19989
head 9.30684 1.23174 -2.8665
rclavicle -1.07344e-014 1.59028e-015
rhumerus -21.378 -33.7923 -9.73018
rradius 35.9343
rwrist -3.71274
rhand -26.0983 -7.46559
rfingers 7.12502
rthumb 0.450758 -37.4449
lclavicle -1.07344e-014 1.59028e-015
lhumerus -29.8484 31.058 32.9662
lradius 47.0777
lwrist 8.16434
lhand -20.1863 -2.40623
lfingers 7.12502
lthumb 6.15991 27.4842
rfemur 4.03695 -5.74856 23.7569
rtibia 29.2548
rfoot -10.9292 -10.2462
rtoes -17.7475
lfemur -25.0617 0.583732 -4.46794
ltibia 30.2826
lfoot 0.0976548 9.6823
ltoes -10.5408
1173
root 1.33512 17.8786 21.3311 2.38424 -1.35109 -8.99658
lowerback 10.1412 -0.11361 -2.50556
upperback 1.67777 -0.444316 -0.501674
thorax -3.92331 -0.190408 0.94864
lowerneck -23.3874 3.25211 8.8268
upperneck 16.7326 2.58476 -5.01235
head 9.28886 1.20893 -2.80299
rclavicle -3.97569e-015 1.43125e-014
rhumerus -21.3685 -33.731 -9.72526
rradius 35.8981
rwrist -3.86461
rhand -26.0859 -7.41333
rfingers 7.12502
rthumb 0.462808 -37.3926
lclavicle -3.97569e-015 1.43125e-014
lhumerus -29.8603 31.1753 33.0888
lradius 47.1538
lwrist 8.13453
lhand -20.1609 -2.43268
lfingers 7.12502
lthumb 6.18451 27.457
rfemur 4.11115 -5.56216 23.7689
rtibia 29.4341
rfoot -10.3973 -9.88024
rtoes -18.0132
lfemur -24.9499 0.527554 -4.36703
ltibia 30.6618
lfoot -0.124956 9.9319
ltoes -10.3778
1174
root 1.37955 17.8909 21.4097 2.43861 -1.51279 -9.22204
lowerback 10.0928 -0.0767063 -2.42311
upperback 1.67482 -0.388654 -0.582791
thorax -3.90261 -0.164632 0.810329
lowerneck -23.4255 3.21153 8.76383
upperneck 16.6987 2.50815 -4.84302
head 9.27462 1.18784 -2.74384
rclavicle 2.38542e-015 -6.36111e-015
rhumerus -21.3242 -33.693 -9.72772
rradius 35.86
rwrist -4.02979
rhand -26.1219 -7.40064
rfingers 7.12502
rthumb 0.428003 -37.38
lclavicle 2.38542e-015 -6.36111e-015
lhumerus -29.8849 31.3266 33.2092
lradius 47.1887
lwrist 8.08475
lhand -20.1326 -2.46727
lfingers 7.12502
lthumb 6.21182 27.4217
rfemur 4.18269 -5.31153 23.785
rtibia 29.5473
rfoot -9.82842 -9.52315
rtoes -18.2178
lfemur -24.808 0.420531 -4.2675
ltibia 30.9565
lfoot -0.354809 10.2816
ltoes -10.344
1175
root 1.42226 17.9053 21.4869 2.50766 -1.68235 -9.39288
lowerback 10.0442 -0.0353339 -2.42178
upperback 1.65331 -0.336268 -0.666678
thorax -3.90028 -0.139084 0.715335
lowerneck -23.4504 3.17206 8.69887
upperneck 16.6995 2.43739 -4.68053
head 9.27099 1.16918 -2.68639
rclavicle -6.36111e-015 7.95139e-015
rhumerus -21.245 -33.6261 -9.74791
rradius 35.8245
rwrist -4.1987
rhand -26.1933 -7.36138
rfingers 7.12502
rthumb 0.359087 -37.3408
lclavicle -6.36111e-015 7.95139e-015
lhumerus -29.9538 31.4723 33.3009
lradius 47.2032
lwrist 8.03089
lhand -20.074 -2.46147
lfingers 7.12502
lthumb 6.26837 27.4258
rfemur 4.2537 -5.01757 23.7567
rtibia 29.6087
rfoot -9.2406 -9.18161
rtoes -18.3901
lfemur -24.6337 0.274425 -4.21946
ltibia 31.1638
lfoot -0.565788 10.6979
ltoes -10.3487
1176
root 1.46259 17.9213 21.5625 2.58957 -1.83913 -9.53863
lowerback 9.99188 0.00315019 -2.47483
upperback 1.62687 -0.293124 -0.742795
thorax -3.9002 -0.117298 0.660269
lowerneck -23.4615 3.14602 8.6628
upperneck 16.6652 2.38445 -4.55633
head 9.25499 1.15598 -2.64415
rclavicle 2.46493e-014 7.95139e-015
rhumerus -21.1359 -33.5676 -9.78253
rradius 35.8008
rwrist -4.3345
rhand -26.2955 -7.33449
rfingers 7.12502
rthumb 0.260302 -37.3141
lclavicle 2.46493e-014 7.95139e-015
lhumerus -30.0278 31.6384 33.3736
lradius 47.1739
lwrist 7.97191
lhand -20.005 -2.40603
lfingers 7.12502
lthumb 6.33496 27.4792
rfemur 4.32427 -4.70098 23.7208
rtibia 29.6265
rfoot -8.64248 -8.86775
rtoes -18.5417
lfemur -24.4405 0.128429 -4.19407
ltibia 31.2905
lfoot -0.752974 11.1045
ltoes -10.3461
1177
root 1.50111 17.9383 21.6367 2.68425 -1.9649 -9.65352
lowerback 9.93375 0.0271113 -2.5729
upperback 1.59338 -0.274082 -0.823477
thorax -3.9033 -0.106765 0.628966
lowerneck -23.4393 3.14201 8.6838
upperneck 16.6085 2.35362 -4.46997
head 9.22846 1.15246 -2.62105
rclavicle -1.23246e-014 -1.59028e-015
rhumerus -20.988 -33.507 -9.85244
rradius 35.7704
rwrist -4.44867
rhand -26.4078 -7.2204
rfingers 7.12502
rthumb 0.151878 -37.2001
lclavicle -1.23246e-014 -1.59028e-015
lhumerus -30.1273 31.781 33.4067
lradius 47.1367
lwrist 7.94952
lhand -19.9399 -2.30714
lfingers 7.12502
lthumb 6.39783 27.5762
rfemur 4.39415 -4.40154 23.663
rtibia 29.6062
rfoot -8.04682 -8.57395
rtoes -18.6802
lfemur -24.2395 -0.0111686 -4.20239
ltibia 31.348
lfoot -0.918471 11.475
ltoes -10.3381
1178
root 1.53786 17.9561 21.7097 2.78927 -2.05811 -9.73601
lowerback 9.89872 0.0368354 -2.72022
upperback 1.5354 -0.280457 -0.905091
thorax -3.94377 -0.107495 0.627768
lowerneck -23.387 3.16108 8.76142
upperneck 16.5404 2.34678 -4.42278
head 9.19585 1.15942 -2.61732
rclavicle 4.77083e-015 2.22639e-014
rhumerus -20.8096 -33.4088 -9.94716
rradius 35.7442
rwrist -4.53448
rhand -26.5217 -7.06778
rfingers 7.12502
rthumb 0.0418944 -37.0475
lclavicle 4.77083e-015 2.22639e-014
lhumerus -30.2622 31.8962 33.3882
lradius 47.0763
lwrist 7.94777
lhand -19.8731 -2.23744
lfingers 7.12502
lthumb 6.46229 27.644
rfemur 4.46909 -4.13839 23.5782
rtibia 29.547
rfoot -7.45814 -8.29023
rtoes -18.823
lfemur -24.0387 -0.122889 -4.24773
ltibia 31.3548
lfoot -1.08041 11.7796
ltoes -10.3214
